<svg xmlns="http://www.w3.org/2000/svg" viewBox="0 0 134.69 76.55"><g id="Layer_2" data-name="Layer 2"><g id="Layer_1-2" data-name="Layer 1"><path d="M97.12,12.1,99,20.47l0,.12,0,.12a6.39,6.39,0,0,0,9.42,3.55l4.89-3-2.69,6.4a6.4,6.4,0,0,0,4.42,8.71l8,2-8.58,2a3.8,3.8,0,0,0-.82.29A6.41,6.41,0,0,0,111,49.41l2.41,4.4-6.12-2.11a6.2,6.2,0,0,0-2.09-.35,6.39,6.39,0,0,0-5.9,3.91,4.06,4.06,0,0,0-.19.59l-2,8.67-2-8.67a3.12,3.12,0,0,0-.19-.59,6.37,6.37,0,0,0-5.89-3.91A6.16,6.16,0,0,0,87,51.7l-6.12,2.11,1.34-2.45a6.83,6.83,0,0,0-5.34-10.08h-.07L38,38.41,77.2,35.94A6.83,6.83,0,0,0,83,26.47L80.85,21.3l4.9,3a6.39,6.39,0,0,0,9.42-3.55l0-.12,0-.12,1.89-8.37m0-12.1a.42.42,0,0,0-.42.34L92.31,19.81a3.41,3.41,0,0,1-3.25,2.38,3.36,3.36,0,0,1-1.76-.5l-11.65-7a.46.46,0,0,0-.22-.06.43.43,0,0,0-.4.6l5.24,12.46A3.84,3.84,0,0,1,77,33L.4,37.77a.44.44,0,0,0,0,.87l76.18,5.63a3.83,3.83,0,0,1,3,5.65L75.05,58.2a.43.43,0,0,0,.37.64l.15,0L88,54.53a3.53,3.53,0,0,1,1.11-.18,3.4,3.4,0,0,1,3.13,2.08l0,.08,4.47,19.7a.43.43,0,0,0,.42.34.44.44,0,0,0,.43-.34L102,56.51s0-.06,0-.08a3.4,3.4,0,0,1,3.13-2.08,3.58,3.58,0,0,1,1.11.18l12.39,4.28.14,0a.44.44,0,0,0,.38-.64L113.61,48a3.41,3.41,0,0,1,1.46-4.67l.12,0,19.15-4.4a.43.43,0,0,0,0-.85l-18.5-4.51a3.41,3.41,0,0,1-2.37-4.64l5.76-13.68a.43.43,0,0,0-.4-.6.46.46,0,0,0-.22.06l-11.66,7.05a3.33,3.33,0,0,1-1.75.5,3.41,3.41,0,0,1-3.25-2.38L97.55.34A.42.42,0,0,0,97.12,0Z"/></g></g></svg>